<svg width="24" height="14" viewBox="0 0 24 14" fill="none" xmlns="http://www.w3.org/2000/svg">
<g clip-path="url(#clip0_139_165)">
<path d="M24 0H0V14H24V0Z" fill="#B22234"/>
<path fill-rule="evenodd" clip-rule="evenodd" d="M24 2.18526H0V1.10834H24V2.18526ZM0 3.26218H24V4.33911H0V3.26218ZM24 6.49295H0V5.41603H24V6.49295ZM0 7.56988H24V8.6468H0V7.56988ZM24 10.8006H0V9.72372H24V10.8006ZM0 11.8776H24V12.9545H0V11.8776Z" fill="white"/>
<path d="M9.6 0H0V7.53846H9.6V0Z" fill="#3C3B6E"/>
<path d="M0.800061 0.323059L1.02851 1.10233L0.43042 0.620713H1.1697L0.57161 1.10233L0.800061 0.323059Z" fill="white"/>
<path d="M0.800061 1.83075L1.02851 2.61002L0.43042 2.1284H1.1697L0.57161 2.61002L0.800061 1.83075Z" fill="white"/>
<path d="M0.800061 3.33844L1.02851 4.11771L0.43042 3.63609H1.1697L0.57161 4.11771L0.800061 3.33844Z" fill="white"/>
<path d="M0.800061 4.84613L1.02851 5.6254L0.43042 5.14378H1.1697L0.57161 5.6254L0.800061 4.84613Z" fill="white"/>
<path d="M0.800061 6.35382L1.02851 7.13309L0.43042 6.65147H1.1697L0.57161 7.13309L0.800061 6.35382Z" fill="white"/>
<path d="M1.60011 1.0769L1.82856 1.85617L1.23047 1.37456H1.96975L1.37166 1.85617L1.60011 1.0769Z" fill="white"/>
<path d="M1.60011 2.58459L1.82856 3.36386L1.23047 2.88225H1.96975L1.37166 3.36386L1.60011 2.58459Z" fill="white"/>
<path d="M1.60011 4.09229L1.82856 4.87155L1.23047 4.38994H1.96975L1.37166 4.87155L1.60011 4.09229Z" fill="white"/>
<path d="M1.60011 5.59998L1.82856 6.37924L1.23047 5.89763H1.96975L1.37166 6.37924L1.60011 5.59998Z" fill="white"/>
<path d="M2.40016 0.323059L2.62861 1.10233L2.03052 0.620713H2.7698L2.17171 1.10233L2.40016 0.323059Z" fill="white"/>
<path d="M2.40016 1.83075L2.62861 2.61002L2.03052 2.1284H2.7698L2.17171 2.61002L2.40016 1.83075Z" fill="white"/>
<path d="M2.40016 3.33844L2.62861 4.11771L2.03052 3.63609H2.7698L2.17171 4.11771L2.40016 3.33844Z" fill="white"/>
<path d="M2.40016 4.84613L2.62861 5.6254L2.03052 5.14378H2.7698L2.17171 5.6254L2.40016 4.84613Z" fill="white"/>
<path d="M2.40016 6.35382L2.62861 7.13309L2.03052 6.65147H2.7698L2.17171 7.13309L2.40016 6.35382Z" fill="white"/>
<path d="M3.20021 1.0769L3.42866 1.85617L2.83057 1.37456H3.56985L2.97176 1.85617L3.20021 1.0769Z" fill="white"/>
<path d="M3.20021 2.58459L3.42866 3.36386L2.83057 2.88225H3.56985L2.97176 3.36386L3.20021 2.58459Z" fill="white"/>
<path d="M3.20021 4.09229L3.42866 4.87155L2.83057 4.38994H3.56985L2.97176 4.87155L3.20021 4.09229Z" fill="white"/>
<path d="M3.20021 5.59998L3.42866 6.37924L2.83057 5.89763H3.56985L2.97176 6.37924L3.20021 5.59998Z" fill="white"/>
<path d="M4.00001 0.323059L4.22846 1.10233L3.63037 0.620713H4.36965L3.77156 1.10233L4.00001 0.323059Z" fill="white"/>
<path d="M4.00001 1.83075L4.22846 2.61002L3.63037 2.1284H4.36965L3.77156 2.61002L4.00001 1.83075Z" fill="white"/>
<path d="M4.00001 3.33844L4.22846 4.11771L3.63037 3.63609H4.36965L3.77156 4.11771L4.00001 3.33844Z" fill="white"/>
<path d="M4.00001 4.84613L4.22846 5.6254L3.63037 5.14378H4.36965L3.77156 5.6254L4.00001 4.84613Z" fill="white"/>
<path d="M4.00001 6.35382L4.22846 7.13309L3.63037 6.65147H4.36965L3.77156 7.13309L4.00001 6.35382Z" fill="white"/>
<path d="M4.80006 1.0769L5.02851 1.85617L4.43042 1.37456H5.1697L4.57161 1.85617L4.80006 1.0769Z" fill="white"/>
<path d="M4.80006 2.58459L5.02851 3.36386L4.43042 2.88225H5.1697L4.57161 3.36386L4.80006 2.58459Z" fill="white"/>
<path d="M4.80006 4.09229L5.02851 4.87155L4.43042 4.38994H5.1697L4.57161 4.87155L4.80006 4.09229Z" fill="white"/>
<path d="M4.80006 5.59998L5.02851 6.37924L4.43042 5.89763H5.1697L4.57161 6.37924L4.80006 5.59998Z" fill="white"/>
<path d="M5.60011 0.323059L5.82856 1.10233L5.23047 0.620713H5.96975L5.37166 1.10233L5.60011 0.323059Z" fill="white"/>
<path d="M5.60011 1.83075L5.82856 2.61002L5.23047 2.1284H5.96975L5.37166 2.61002L5.60011 1.83075Z" fill="white"/>
<path d="M5.60011 3.33844L5.82856 4.11771L5.23047 3.63609H5.96975L5.37166 4.11771L5.60011 3.33844Z" fill="white"/>
<path d="M5.60011 4.84613L5.82856 5.6254L5.23047 5.14378H5.96975L5.37166 5.6254L5.60011 4.84613Z" fill="white"/>
<path d="M5.60011 6.35382L5.82856 7.13309L5.23047 6.65147H5.96975L5.37166 7.13309L5.60011 6.35382Z" fill="white"/>
<path d="M6.40016 1.0769L6.62861 1.85617L6.03052 1.37456H6.7698L6.17171 1.85617L6.40016 1.0769Z" fill="white"/>
<path d="M6.40016 2.58459L6.62861 3.36386L6.03052 2.88225H6.7698L6.17171 3.36386L6.40016 2.58459Z" fill="white"/>
<path d="M6.40016 4.09229L6.62861 4.87155L6.03052 4.38994H6.7698L6.17171 4.87155L6.40016 4.09229Z" fill="white"/>
<path d="M6.40016 5.59998L6.62861 6.37924L6.03052 5.89763H6.7698L6.17171 6.37924L6.40016 5.59998Z" fill="white"/>
<path d="M7.19996 0.323059L7.42841 1.10233L6.83032 0.620713H7.56961L6.97151 1.10233L7.19996 0.323059Z" fill="white"/>
<path d="M7.19996 1.83075L7.42841 2.61002L6.83032 2.1284H7.56961L6.97151 2.61002L7.19996 1.83075Z" fill="white"/>
<path d="M7.19996 3.33844L7.42841 4.11771L6.83032 3.63609H7.56961L6.97151 4.11771L7.19996 3.33844Z" fill="white"/>
<path d="M7.19996 4.84613L7.42841 5.6254L6.83032 5.14378H7.56961L6.97151 5.6254L7.19996 4.84613Z" fill="white"/>
<path d="M7.19996 6.35382L7.42841 7.13309L6.83032 6.65147H7.56961L6.97151 7.13309L7.19996 6.35382Z" fill="white"/>
<path d="M8.00001 1.0769L8.22846 1.85617L7.63037 1.37456H8.36965L7.77156 1.85617L8.00001 1.0769Z" fill="white"/>
<path d="M8.00001 2.58459L8.22846 3.36386L7.63037 2.88225H8.36965L7.77156 3.36386L8.00001 2.58459Z" fill="white"/>
<path d="M8.00001 4.09229L8.22846 4.87155L7.63037 4.38994H8.36965L7.77156 4.87155L8.00001 4.09229Z" fill="white"/>
<path d="M8.00001 5.59998L8.22846 6.37924L7.63037 5.89763H8.36965L7.77156 6.37924L8.00001 5.59998Z" fill="white"/>
<path d="M8.80006 0.323059L9.02851 1.10233L8.43042 0.620713H9.1697L8.57161 1.10233L8.80006 0.323059Z" fill="white"/>
<path d="M8.80006 1.83075L9.02851 2.61002L8.43042 2.1284H9.1697L8.57161 2.61002L8.80006 1.83075Z" fill="white"/>
<path d="M8.80006 3.33844L9.02851 4.11771L8.43042 3.63609H9.1697L8.57161 4.11771L8.80006 3.33844Z" fill="white"/>
<path d="M8.80006 4.84613L9.02851 5.6254L8.43042 5.14378H9.1697L8.57161 5.6254L8.80006 4.84613Z" fill="white"/>
<path d="M8.80006 6.35382L9.02851 7.13309L8.43042 6.65147H9.1697L8.57161 7.13309L8.80006 6.35382Z" fill="white"/>
</g>
<defs>
<clipPath id="clip0_139_165">
<rect width="24" height="14" fill="white"/>
</clipPath>
</defs>
</svg>
