<svg width="24" height="16" viewBox="0 0 24 16" fill="none" xmlns="http://www.w3.org/2000/svg">
<g clip-path="url(#clip0_139_245)">
<path d="M0 0H24V16H0V0Z" fill="#E30A17"/>
<path d="M11.1334 8L14.7516 6.82453L12.5153 9.90213V6.09787L14.7516 9.17547L11.1334 8ZM11.3801 10.1389C10.9167 10.8713 10.2279 11.4333 9.41753 11.7404C8.60713 12.0475 7.71891 12.0831 6.88652 11.8419C6.05413 11.6007 5.32261 11.0956 4.80204 10.4027C4.28146 9.70984 4 8.86664 4 8C4 7.13336 4.28146 6.29016 4.80204 5.59728C5.32261 4.90441 6.05413 4.39935 6.88652 4.1581C7.71891 3.91686 8.60713 3.95248 9.41753 4.2596C10.2279 4.56672 10.9167 5.12874 11.3801 5.86107C10.9473 5.37951 10.3787 5.04055 9.74923 4.88896C9.11979 4.73736 8.45917 4.78026 7.85462 5.01199C7.25007 5.24372 6.73004 5.65338 6.3632 6.18687C5.99635 6.72035 5.79996 7.35256 5.79996 8C5.79996 8.64744 5.99635 9.27965 6.3632 9.81313C6.73004 10.3466 7.25007 10.7563 7.85462 10.988C8.45917 11.2197 9.11979 11.2626 9.74923 11.111C10.3787 10.9595 10.9473 10.6205 11.3801 10.1389Z" fill="white"/>
</g>
<defs>
<clipPath id="clip0_139_245">
<rect width="24" height="16" fill="white"/>
</clipPath>
</defs>
</svg>
