<svg width="140" height="68" viewBox="0 0 140 68" fill="none" xmlns="http://www.w3.org/2000/svg">
<g clip-path="url(#clip0_80_69)">
<mask id="mask0_80_69" style="mask-type:luminance" maskUnits="userSpaceOnUse" x="0" y="0" width="140" height="68">
<path d="M139.98 0H0V67.9585H139.98V0Z" fill="white"/>
</mask>
<g mask="url(#mask0_80_69)">
<path d="M68.8215 0H71.0307C81.1963 0.104869 91.3792 1.14613 101.28 3.50363C107.15 4.90657 112.926 6.7686 118.417 9.28795C122.938 11.3738 127.295 13.9039 131.077 17.1647C133.187 18.9929 135.11 21.0597 136.641 23.4032C138.017 25.5072 139.062 27.8449 139.579 30.3114C139.817 31.4353 139.941 32.5814 139.98 33.7292V34.2874C139.899 37.232 139.105 40.1435 137.717 42.7389C136.427 45.1805 134.685 47.3605 132.719 49.2895C129.174 52.7518 124.95 55.4429 120.538 57.66C115.242 60.3057 109.63 62.2825 103.914 63.8005C93.2073 66.6208 82.1224 67.8569 71.0635 67.9585H69.0015C58.03 67.8668 47.0329 66.6549 36.4012 63.8909C30.6453 62.3835 24.9934 60.4147 19.6557 57.7723C15.3021 55.6047 11.1299 52.9822 7.59205 49.6206C5.56206 47.6842 3.75395 45.4902 2.40365 43.0221C0.908175 40.3128 0.0296951 37.2468 0 34.1437V33.8216C0.0296951 31.2139 0.644217 28.6236 1.74046 26.2611C2.94559 23.6444 4.68522 21.3025 6.68554 19.2431C10.0906 15.7519 14.2017 13.027 18.5075 10.7768C23.615 8.12451 29.0418 6.12454 34.5767 4.56884C45.709 1.45991 57.2826 0.131293 68.8215 0ZM67.9869 2.75138C57.9022 2.89588 47.8066 4.03706 38.0139 6.48706C32.4567 7.88918 26.9912 9.71737 21.8102 12.1814C17.3972 14.2961 13.1508 16.8707 9.57419 20.2382C7.51533 22.1886 5.69074 24.4263 4.43034 26.9787C3.26069 29.3312 2.62719 31.9687 2.7468 34.6012C2.8532 37.3525 3.77375 40.0296 5.1884 42.3772C7.02784 45.4357 9.60717 47.9832 12.4208 50.1466C14.7379 51.9211 17.2372 53.4479 19.824 54.7939C24.449 57.1926 29.3495 59.0258 34.3457 60.4833C40.3639 62.2305 46.5339 63.4246 52.7509 64.1906C61.5142 65.2608 70.3768 65.4881 79.1869 64.9357C86.7592 64.452 94.3036 63.3744 101.672 61.5476C107.189 60.1719 112.616 58.3792 117.77 55.9673C122.24 53.8592 126.548 51.2894 130.191 47.9188C132.202 46.046 133.998 43.9073 135.291 41.4705C136.575 39.0659 137.31 36.3435 137.23 33.6086C137.168 30.7961 136.252 28.0489 134.815 25.6476C133.4 23.2703 131.522 21.1969 129.45 19.3777C125.68 16.0871 121.292 13.581 116.747 11.5282C111.196 9.03942 105.359 7.23184 99.4334 5.88508C89.1298 3.56144 78.5392 2.61761 67.9869 2.75138Z" fill="#7AAED5"/>
<path d="M53.7728 5.57058C61.1817 4.61107 68.6772 4.33692 76.1387 4.68621C84.7268 5.09991 93.2969 6.34511 101.574 8.70263C107.019 10.2674 112.352 12.3112 117.283 15.1219C121.243 17.401 125 20.1928 127.819 23.8303C89.2627 23.8319 50.7068 23.8311 12.1501 23.8303C13.776 21.7188 15.7449 19.8923 17.864 18.2862C22.0246 15.1517 26.7346 12.8206 31.5839 10.9611C38.7198 8.2501 46.2137 6.5623 53.7728 5.57058ZM56.4478 17.1731C65.4733 17.174 74.4999 17.174 83.5266 17.1731C83.5248 14.051 83.5273 10.9289 83.5248 7.80668C83.1245 7.80668 82.7249 7.80668 82.3252 7.80754C82.2733 9.75465 81.1937 11.6365 79.5227 12.6406C78.4191 13.321 77.0834 13.6084 75.7972 13.4515C74.2754 13.2789 72.8444 12.4655 71.9041 11.2583C71.1271 10.2814 70.7014 9.05025 70.652 7.80668C70.1589 7.80668 69.6664 7.80668 69.174 7.80668C69.1332 8.48296 69.0181 9.15925 68.762 9.79013C68.2467 11.1105 67.2327 12.2261 65.9682 12.8644C64.742 13.4928 63.2876 13.6563 61.9507 13.3259C60.681 13.0196 59.5287 12.2641 58.731 11.2302C57.968 10.2583 57.549 9.03953 57.5003 7.80754C57.1498 7.80668 56.7992 7.80668 56.4495 7.80587C56.4461 10.9289 56.4495 14.051 56.4478 17.1731ZM56.4453 18.5348C56.4445 19.1673 56.4437 19.8006 56.4461 20.434C65.472 20.434 74.4981 20.434 83.5248 20.434C83.5266 19.8006 83.5254 19.1681 83.5254 18.5348C74.4981 18.5348 65.472 18.5348 56.4453 18.5348Z" fill="#7AAED5"/>
<path d="M105.021 28.6822C105.255 28.6442 105.586 28.6021 105.686 28.882C107.435 31.9191 109.196 34.9488 110.941 37.9875C111.034 38.1238 111.115 38.3211 111.304 38.3418C112.137 38.4384 112.983 38.4103 113.816 38.5143C113.941 38.7505 113.854 39.0362 113.854 39.2922C111.648 39.3095 109.441 39.2881 107.236 39.303C107.074 39.3005 106.914 39.298 106.756 39.2732C106.67 39.0337 106.716 38.772 106.708 38.5234C107.506 38.3929 108.335 38.4912 109.12 38.2815C108.625 37.3674 108.085 36.478 107.571 35.5755C106.037 35.5772 104.504 35.573 102.971 35.5772C102.523 36.3542 102.079 37.1329 101.624 37.9041C101.549 38.0288 101.495 38.1642 101.463 38.3054C102.211 38.4772 102.994 38.3929 103.75 38.5143C103.906 38.6976 103.879 39.0726 103.763 39.2807C101.567 39.3261 99.3655 39.2798 97.1668 39.303C97.0084 39.2872 96.821 39.3352 96.688 39.2286C96.6577 38.9949 96.6676 38.7588 96.6676 38.5242C97.5145 38.4169 98.3719 38.4326 99.2213 38.3467C99.5065 38.2963 99.5931 37.9636 99.7404 37.7538C101.216 35.1841 102.702 32.6219 104.182 30.0554C104.472 29.6046 104.676 29.0943 105.021 28.6822ZM103.737 34.2544C104.761 34.2552 105.786 34.2544 106.809 34.2544C106.298 33.3683 105.786 32.4831 105.274 31.5979C104.759 32.4823 104.249 33.3683 103.737 34.2544Z" fill="#7AAED5"/>
<path d="M13.0132 28.7731C13.24 28.7591 13.466 28.7434 13.6937 28.7442C15.7278 28.7492 17.7619 28.7451 19.796 28.7459C20.1499 28.75 20.5062 28.7236 20.8584 28.7674C20.9418 29.0085 20.9384 29.2842 20.8617 29.5279C19.8983 29.6352 18.925 29.6228 17.959 29.7095C17.9335 31.4221 17.9549 33.1347 17.9475 34.8473C17.9549 36.0066 17.9318 37.1652 17.9607 38.3237C18.9365 38.3972 19.9156 38.4219 20.8914 38.493C20.9022 38.7333 20.9277 38.9768 20.8881 39.2163C20.8122 39.322 20.653 39.2667 20.5434 39.2906C18.2312 39.2857 15.9192 39.2882 13.6079 39.289C13.4091 39.2873 13.2103 39.2741 13.0123 39.2642C13.0107 39.0115 12.9909 38.7564 13.0494 38.5086C14.0121 38.3955 14.987 38.4063 15.9538 38.3286C15.9942 35.9835 15.9604 33.6367 15.9711 31.2908C15.9703 30.7615 15.9827 30.233 15.9546 29.7046C14.9747 29.6294 13.9898 29.6302 13.0132 29.5212C13.0115 29.2719 13.0115 29.0225 13.0132 28.7731Z" fill="#7AAED5"/>
<path d="M21.6404 28.7698C21.9851 28.7235 22.3349 28.7483 22.6814 28.7466C24.0845 28.745 25.4875 28.7499 26.8898 28.7425C27.0622 28.7524 27.2915 28.7119 27.3649 28.9151C28.9272 31.5566 30.4895 34.199 32.0526 36.8406C33.6157 34.2048 35.1739 31.5657 36.7329 28.9283C36.817 28.6954 37.0843 28.754 37.279 28.7416C39.0211 28.7681 40.7648 28.7103 42.5061 28.7714C42.5086 29.0216 42.5086 29.271 42.5069 29.5212C41.5278 29.6294 40.5413 29.626 39.5605 29.707C39.525 31.5294 39.5547 33.3526 39.5448 35.1759C39.5547 36.2262 39.5242 37.2766 39.5622 38.3269C40.5297 38.4062 41.5039 38.3979 42.4682 38.5069C42.5317 38.7538 42.5078 39.0106 42.5069 39.2633C40.8201 39.3203 39.1308 39.2724 37.4431 39.2881C36.7626 39.2724 36.0796 39.3194 35.4016 39.2683C35.2795 39.0305 35.3603 38.748 35.3612 38.4929C36.0441 38.4301 36.7321 38.4186 37.4126 38.3344C37.6023 38.3443 37.5577 38.1089 37.5726 37.9851C37.5635 35.3228 37.5734 32.6615 37.5676 29.9993C36.9457 31.2255 36.1976 32.3807 35.5137 33.5722C34.4431 35.3897 33.3699 37.2063 32.3017 39.0246C32.2267 39.1353 32.1615 39.2839 32.0114 39.3013C31.9033 39.184 31.8208 39.0478 31.7384 38.9132C30.8145 37.3344 29.8816 35.7605 28.9528 34.1841C28.1518 32.7878 27.2783 31.4328 26.5392 30.0026C26.5318 32.4707 26.54 34.9389 26.5351 37.407C26.5351 37.7059 26.5145 38.0082 26.5681 38.3046C27.2824 38.4367 28.0174 38.4186 28.74 38.4879C28.7325 38.7406 28.8604 39.0585 28.6872 39.2683C27.5967 39.3186 26.5005 39.2724 25.4084 39.2881C24.138 39.2724 22.8661 39.3211 21.5975 39.2616C21.5983 39.0114 21.5735 38.7555 21.6362 38.511C22.5453 38.3897 23.4699 38.4219 24.383 38.3352C24.6264 38.3451 24.5389 38.061 24.5637 37.9033C24.5455 35.1709 24.5851 32.4377 24.5439 29.7053C23.5614 29.6277 22.5741 29.6302 21.5941 29.5195C21.5958 29.2693 21.576 29.0141 21.6404 28.7698Z" fill="#7AAED5"/>
<path d="M43.2006 28.7731C44.5798 28.712 45.9623 28.7632 47.3431 28.7467C49.6271 28.7508 51.912 28.7385 54.196 28.7525C55.5752 28.7855 56.8174 29.9184 56.9857 31.2875C57.1895 32.5435 56.4735 33.8671 55.3187 34.3923C54.818 34.64 54.2505 34.6929 53.7003 34.6764C51.846 34.6722 49.9925 34.6747 48.1382 34.6747C48.144 35.891 48.1234 37.1082 48.1489 38.3245C49.1165 38.4096 50.0915 38.3939 51.0558 38.507C51.1209 38.7407 51.1168 38.9884 51.0772 39.2263C50.9774 39.2964 50.8462 39.2749 50.7324 39.2873C48.8064 39.2824 46.8803 39.2865 44.9542 39.2848C44.3694 39.2799 43.7838 39.3022 43.1998 39.2625C43.1973 39.0107 43.175 38.7547 43.2369 38.5087C44.2036 38.3831 45.1861 38.4286 46.1544 38.3088C46.161 35.4468 46.1602 32.5848 46.1553 29.7227C45.1729 29.608 44.1806 29.6402 43.1998 29.5205C43.1973 29.2711 43.1973 29.0217 43.2006 28.7731ZM48.1382 30.0679C48.1374 31.1637 48.1374 32.2603 48.1382 33.3568C49.8828 33.3552 51.6274 33.3593 53.372 33.356C53.923 33.3626 54.4682 33.0819 54.7693 32.6161C55.1199 32.0993 55.1314 31.3784 54.7982 30.8507C54.5029 30.3602 53.9404 30.0531 53.3687 30.0679C51.6249 30.0663 49.8812 30.0679 48.1382 30.0679Z" fill="#7AAED5"/>
<path d="M57.0641 28.773C57.7553 28.7193 58.4499 28.7565 59.1427 28.7466C62.4964 28.745 65.8514 28.7491 69.2051 28.7441C69.3207 28.7664 69.5657 28.7029 69.5564 28.8919C69.5855 30.0216 69.554 31.1528 69.5701 32.2833C69.5682 32.5236 69.5886 32.7705 69.5243 33.0049C69.2861 33.0487 69.0405 33.0471 68.8035 33.0049C68.626 32.0438 68.6544 31.0455 68.4342 30.0909C67.4295 30.0331 66.418 30.0852 65.4115 30.0678C64.2732 30.0678 63.1361 30.0669 61.999 30.0678C61.9984 31.1627 61.9984 32.2577 61.999 33.3534C63.1386 33.3551 64.2775 33.3485 65.4165 33.3567C65.5946 33.3551 65.7753 33.3576 65.9528 33.3237C66.1242 32.8852 66.0642 32.4022 66.1533 31.9472C66.3766 31.8398 66.6432 31.8828 66.8814 31.9134C66.9532 32.0504 66.9278 32.2147 66.9383 32.365C66.926 33.616 66.942 34.867 66.9297 36.118C66.6803 36.1337 66.4298 36.1585 66.1811 36.1246C66.0549 35.6564 66.1056 35.1577 65.9695 34.6895C64.6462 34.6556 63.3223 34.6829 61.999 34.6746C61.9984 35.7712 61.9984 36.8669 61.999 37.9636C64.1563 37.9487 66.3141 37.9941 68.4695 37.9413C68.5604 37.1271 68.6668 36.3145 68.7275 35.4979C68.7435 35.3394 68.7547 35.1783 68.8029 35.0264C69.043 34.981 69.2917 34.9851 69.5329 35.0272C69.5905 35.3493 69.5676 35.6771 69.5676 36.0024C69.5632 37.0891 69.5725 38.1758 69.5632 39.2616C68.0692 39.3145 66.5733 39.2707 65.0787 39.2847C62.6325 39.2864 60.187 39.2822 57.7421 39.2872C57.5145 39.2864 57.2876 39.2732 57.0616 39.2608C57.0624 39.0098 57.0385 38.7546 57.102 38.5093C58.068 38.383 59.0495 38.4285 60.0171 38.3096C60.0311 35.5574 60.0163 32.8052 60.0254 30.0529C60.0097 29.9257 60.0575 29.6797 59.8579 29.6978C58.9283 29.6178 57.9913 29.6318 57.0633 29.5203C57.0616 29.2709 57.0616 29.0224 57.0641 28.773Z" fill="#7AAED5"/>
<path d="M70.6627 28.7483C74.2477 28.7433 77.8315 28.7483 81.4166 28.7458C82.219 28.7285 83.0245 29.0423 83.5893 29.617C84.3682 30.38 84.6552 31.5905 84.3113 32.6243C84.0279 33.5186 83.2924 34.2519 82.399 34.5334C81.9901 34.6738 81.5521 34.6755 81.1252 34.6804C81.88 35.507 82.6261 36.3427 83.4012 37.1502C83.8689 37.6407 84.5222 37.9685 85.2083 37.9644C85.9872 37.9958 86.7494 37.5119 87.0612 36.7985C87.2171 36.4805 87.1942 36.118 87.2814 35.7819C87.6897 35.7341 88.106 35.7374 88.5156 35.7828C88.7235 37.3839 87.4466 38.9619 85.8764 39.2286C84.8124 39.3937 83.671 39.203 82.7677 38.5994C82.3106 38.3038 81.922 37.9182 81.5552 37.5193C80.6773 36.5796 79.8199 35.6226 78.9544 34.6721C77.8266 34.6771 76.6994 34.6721 75.5716 34.6746C75.5692 35.7514 75.5747 36.8273 75.5673 37.9041C75.579 38.0387 75.5494 38.1964 75.6304 38.3153C76.5936 38.4318 77.5736 38.3839 78.5368 38.5177C78.5343 38.7645 78.5337 39.0122 78.5306 39.26C76.5769 39.3169 74.622 39.2691 72.6689 39.2847C72.0156 39.2683 71.3599 39.3169 70.7097 39.2658C70.5433 39.0544 70.6651 38.7406 70.6577 38.4887C71.6265 38.4078 72.6046 38.4285 73.5672 38.3038C73.6198 37.9512 73.592 37.5945 73.595 37.2402C73.595 35.0941 73.595 32.9472 73.595 30.8002C73.592 30.4427 73.6192 30.0827 73.5672 29.7276C72.6423 29.5996 71.7007 29.6393 70.7728 29.5451C70.654 29.5559 70.628 29.4055 70.6299 29.3197C70.6218 29.1281 70.6453 28.9382 70.6627 28.7483ZM75.571 30.0678C75.571 31.1636 75.571 32.2602 75.5716 33.3567C77.328 33.3543 79.0837 33.3617 80.8406 33.3534C81.4321 33.3584 82.0074 33.0124 82.2821 32.4881C82.5939 31.9224 82.5246 31.1743 82.112 30.6772C81.7903 30.2693 81.2687 30.0472 80.754 30.0662C79.0262 30.0686 77.2989 30.067 75.571 30.0678Z" fill="#7AAED5"/>
<path d="M88.1579 28.7738C89.1527 28.7135 90.1494 28.7614 91.146 28.7465C92.7755 28.7499 94.4063 28.7383 96.037 28.7524C96.0432 29.0091 96.11 29.2825 96.0098 29.5285C95.0466 29.6351 94.0722 29.621 93.1071 29.7119C93.0948 32.5813 93.0941 35.4516 93.1071 38.321C94.0735 38.4119 95.0472 38.3954 96.0111 38.5052C96.0853 38.7455 96.1113 39.0378 95.9962 39.2682C93.7233 39.3169 91.4461 39.2715 89.1719 39.2896C88.8347 39.2938 88.497 39.2864 88.1604 39.2633C88.1549 39.0122 88.145 38.7587 88.1944 38.511C89.162 38.383 90.1463 38.43 91.1163 38.3095C91.1163 35.4417 91.1367 32.5739 91.1052 29.7061C90.1438 29.6219 89.1719 29.6417 88.2161 29.5219C88.1072 29.2965 88.1753 29.019 88.1579 28.7738Z" fill="#7AAED5"/>
<path d="M114.502 28.7689C115.321 28.712 116.145 28.7632 116.966 28.7467C118.644 28.7459 120.324 28.7475 122.003 28.7442C122.108 28.7632 122.254 28.7244 122.335 28.8169C122.369 29.0489 122.356 29.2859 122.357 29.5204C121.47 29.6236 120.574 29.6236 119.684 29.683C119.558 29.6971 119.349 29.7021 119.396 29.8854C119.387 32.5789 119.395 35.2725 119.392 37.9661C121.445 37.9686 123.498 37.9644 125.551 37.9686C125.657 37.9545 125.865 37.9876 125.867 37.8257C125.987 36.9983 126.061 36.1644 126.137 35.332C126.147 35.2263 126.163 35.1214 126.202 35.0223C126.439 34.9786 126.684 34.9852 126.922 35.0306C126.986 35.3518 126.953 35.6804 126.957 36.0058C126.956 37.09 126.957 38.1742 126.957 39.2592C126.239 39.312 125.521 39.2741 124.803 39.2848C121.447 39.2848 118.091 39.2857 114.735 39.2848C114.634 39.2724 114.447 39.3005 114.462 39.142C114.431 38.9306 114.436 38.7126 114.494 38.5069C115.459 38.3963 116.434 38.4095 117.403 38.3245C117.426 35.4534 117.422 32.5814 117.405 29.7103C116.441 29.6195 115.468 29.6393 114.507 29.5254C114.41 29.2916 114.423 29.0076 114.502 28.7689Z" fill="#7AAED5"/>
<path d="M12.1528 44.136C50.7078 44.1343 89.263 44.1343 127.818 44.136C126.184 46.2565 124.205 48.0897 122.074 49.7007C117.978 52.7807 113.351 55.0829 108.585 56.926C102.873 59.1174 96.92 60.6393 90.8974 61.6814C83.7378 62.9142 76.4656 63.4611 69.2027 63.4196C63.2191 63.3831 57.2357 62.9433 51.319 62.0466C45.2934 61.1282 39.3271 59.7442 33.5696 57.7294C28.8563 56.0688 24.2635 53.9913 20.0789 51.2415C17.1119 49.2788 14.3338 46.965 12.1528 44.136ZM35.3133 47.6594C34.4843 48.2557 34.3928 49.7271 35.282 50.3109C36.0071 50.8146 36.9433 50.7874 37.7129 51.1854C38.1467 51.377 38.1996 52.0384 37.8267 52.3174C37.444 52.6164 36.9144 52.5891 36.4615 52.5131C35.9262 52.4248 35.4989 52.0714 35.0609 51.7799C34.8416 52.0318 34.6254 52.2869 34.4118 52.5437C35.1665 53.2208 36.1877 53.5842 37.2014 53.5082C37.868 53.4768 38.5807 53.1928 38.9188 52.5842C39.2439 51.9443 39.2504 51.0475 38.6772 50.5429C37.9496 49.8997 36.9062 49.9418 36.0739 49.5149C35.6903 49.3415 35.6045 48.7759 35.8891 48.4786C36.1737 48.1681 36.6397 48.1491 37.0299 48.2036C37.5265 48.2647 37.9512 48.5488 38.3719 48.7973C38.5732 48.5314 38.7663 48.2597 38.9559 47.9856C38.5295 47.6776 38.061 47.4092 37.5397 47.306C36.7931 47.1524 35.9427 47.1821 35.3133 47.6594ZM57.6012 47.6677C56.7887 48.2639 56.6963 49.7064 57.5608 50.2977C58.299 50.8237 59.2649 50.78 60.0453 51.2052C60.4618 51.4133 60.4841 52.0664 60.1112 52.329C59.7202 52.6197 59.1915 52.5891 58.7362 52.5082C58.2099 52.4165 57.7934 52.0648 57.3595 51.7816C57.1392 52.0318 56.9239 52.2869 56.7111 52.5437C57.2399 53.0028 57.8783 53.3447 58.5754 53.457C59.2798 53.5726 60.0592 53.547 60.6788 53.1515C61.5687 52.6048 61.7404 51.1094 60.8783 50.4595C60.1285 49.879 59.1057 49.9335 58.3032 49.4711C57.9385 49.2515 57.9278 48.6603 58.2611 48.4084C58.5729 48.1507 59.0117 48.1524 59.3903 48.2135C59.8605 48.287 60.2646 48.5562 60.6639 48.7973C60.8709 48.5339 61.0673 48.2622 61.2553 47.9848C60.8181 47.6702 60.3373 47.3969 59.8011 47.2986C59.0612 47.1524 58.2206 47.1913 57.6012 47.6677ZM103.992 47.2961C103.42 47.4291 102.868 47.8048 102.667 48.3754C102.483 48.9154 102.491 49.5743 102.868 50.0326C103.209 50.4372 103.733 50.6123 104.226 50.7527C104.722 50.8972 105.261 50.9525 105.7 51.2465C106.059 51.4785 106.053 52.0714 105.715 52.3216C105.33 52.6164 104.802 52.5891 104.349 52.5123C103.913 52.4405 103.541 52.1878 103.191 51.9351C103.097 51.8889 102.985 51.7444 102.891 51.865C102.673 52.0697 102.5 52.3174 102.307 52.5445C103.179 53.3315 104.424 53.6907 105.576 53.4388C106.133 53.3199 106.672 52.964 106.889 52.4207C107.13 51.8014 107.098 50.9963 106.563 50.538C105.835 49.8972 104.792 49.9418 103.961 49.5116C103.562 49.3283 103.496 48.7279 103.817 48.4414C104.109 48.1656 104.546 48.1516 104.922 48.2036C105.418 48.2647 105.843 48.548 106.263 48.7973C106.464 48.5322 106.659 48.2606 106.849 47.9856C106.052 47.3597 104.988 47.0748 103.992 47.2961ZM45.0228 47.3217C45.7718 48.4959 46.5464 49.6544 47.3069 50.8204C47.4562 51.0252 47.4388 51.2861 47.4413 51.5264C47.4347 52.1573 47.4314 52.7881 47.443 53.4182C47.8001 53.4306 48.1581 53.4306 48.5161 53.4207C48.531 52.7048 48.5178 51.9888 48.5202 51.2729C48.4905 50.9212 48.7528 50.6552 48.9253 50.3794C49.5942 49.3596 50.2797 48.3506 50.9322 47.3201C50.5354 47.3193 50.1361 47.2804 49.7419 47.3341C49.5266 47.5373 49.402 47.813 49.2379 48.0566C48.8188 48.704 48.4188 49.3646 47.9841 50.0021C47.4042 49.1153 46.8573 48.2061 46.2774 47.3201C45.8592 47.3085 45.441 47.3085 45.0228 47.3217ZM67.5051 47.325C67.4995 47.6495 67.5002 47.9749 67.5076 48.2994C68.1485 48.3275 68.7907 48.3002 69.4322 48.3217C69.4526 50.0211 69.4291 51.7204 69.4446 53.4198C69.8015 53.4306 70.1603 53.4314 70.5192 53.4182C70.5402 51.7188 70.5111 50.0194 70.534 48.3201C71.1737 48.3052 71.8127 48.3184 72.4518 48.3093C72.4617 47.9782 72.4617 47.6479 72.4518 47.3176C70.8031 47.3134 69.1544 47.2978 67.5051 47.325ZM78.835 47.3193C78.8208 49.3531 78.8202 51.3885 78.835 53.4223C80.3526 53.4306 81.8701 53.438 83.3883 53.4182C83.3945 53.0994 83.3938 52.7799 83.3839 52.4611C82.2233 52.4447 81.0628 52.4645 79.9022 52.4504C79.8904 51.9112 79.8917 51.3728 79.9003 50.8336C80.9162 50.8179 81.9307 50.8369 82.9459 50.8237C82.9565 50.5041 82.9583 50.1846 82.9552 49.8659C81.9388 49.8386 80.9223 49.8642 79.9065 49.8518C79.8892 49.3316 79.8904 48.8106 79.9028 48.2911C81.0473 48.278 82.1918 48.2911 83.3369 48.2837C83.3499 47.9617 83.3511 47.6388 83.3394 47.3176C81.8373 47.3094 80.3359 47.306 78.835 47.3193ZM89.9162 47.3225C89.9014 49.3547 89.9014 51.3885 89.9162 53.4207C90.2652 53.4306 90.6153 53.4306 90.9661 53.4198C90.984 51.9748 90.9605 50.5298 90.9785 49.0855C91.6293 50.0318 92.2504 50.998 92.8987 51.9467C93.557 50.9955 94.1781 50.0178 94.8407 49.069C94.8543 50.519 94.837 51.9698 94.8506 53.4198C95.2007 53.4306 95.5534 53.4306 95.9054 53.419C95.9159 51.3877 95.9153 49.3563 95.9054 47.325C95.5323 47.3184 95.1562 47.2771 94.7875 47.3374C94.5895 47.5306 94.467 47.7833 94.3148 48.0112C93.8471 48.7354 93.3887 49.4654 92.9111 50.1837C92.2609 49.254 91.7128 48.2523 91.0385 47.3424C90.6685 47.2747 90.2887 47.3193 89.9162 47.3225Z" fill="#7AAED5"/>
<path d="M67.9869 2.7514C78.5392 2.61763 89.1298 3.56145 99.4334 5.88509C105.359 7.23187 111.196 9.03944 116.747 11.5283C121.292 13.581 125.68 16.0872 129.45 19.3777C131.522 21.1969 133.4 23.2703 134.815 25.6476C136.252 28.0489 137.168 30.7962 137.23 33.6086C137.309 36.3435 136.575 39.066 135.291 41.4705C133.998 43.9073 132.202 46.046 130.191 47.9188C126.548 51.2894 122.24 53.8592 117.77 55.9673C112.616 58.3793 107.189 60.172 101.672 61.5476C94.3036 63.3744 86.7591 64.452 79.1869 64.9357C70.3767 65.4881 61.5142 65.2608 52.7508 64.1907C46.5339 63.4246 40.3638 62.2306 34.3456 60.4833C29.3494 59.0258 24.4489 57.1927 19.8239 54.7939C17.2372 53.448 14.7378 51.9211 12.4208 50.1466C9.60715 47.9832 7.02782 45.4357 5.18838 42.3772C3.77374 40.0296 2.85319 37.3525 2.74678 34.6012C2.62717 31.9687 3.26067 29.3312 4.43032 26.9787C5.69072 24.4263 7.51532 22.1886 9.57418 20.2382C13.1508 16.8708 17.3972 14.2961 21.8102 12.1814C26.9912 9.7174 32.4567 7.8892 38.0138 6.48709C47.8066 4.03708 57.9021 2.89591 67.9869 2.7514ZM53.7729 5.57049C46.2138 6.56221 38.7199 8.25001 31.584 10.961C26.7347 12.8205 22.0246 15.1516 17.8641 18.2861C15.745 19.8922 13.776 21.7187 12.1502 23.8302C50.7068 23.831 89.2628 23.8318 127.819 23.8302C125 20.1927 121.243 17.4009 117.283 15.1218C112.352 12.3111 107.019 10.2673 101.575 8.70254C93.297 6.34502 84.7269 5.09981 76.1388 4.68611C68.6773 4.33682 61.1818 4.61097 53.7729 5.57049ZM105.021 28.6822C104.676 29.0943 104.472 29.6046 104.182 30.0555C102.702 32.6219 101.216 35.1841 99.7402 37.7538C99.593 37.9636 99.5064 38.2963 99.2212 38.3468C98.3718 38.4326 97.5143 38.4169 96.6674 38.5243C96.6674 38.7588 96.6575 38.9949 96.6878 39.2287C96.8208 39.3352 97.0083 39.2872 97.1667 39.303C99.3653 39.2798 101.566 39.3261 103.763 39.2807C103.879 39.0726 103.906 38.6977 103.75 38.5143C102.994 38.393 102.21 38.4772 101.463 38.3055C101.495 38.1643 101.549 38.0288 101.623 37.9041C102.079 37.1329 102.523 36.3542 102.971 35.5772C104.504 35.5731 106.037 35.5772 107.57 35.5755C108.085 36.4781 108.625 37.3674 109.12 38.2815C108.334 38.4912 107.506 38.393 106.707 38.5234C106.716 38.772 106.67 39.0338 106.756 39.2732C106.914 39.298 107.074 39.3005 107.236 39.303C109.441 39.2881 111.648 39.3095 113.854 39.2922C113.853 39.0362 113.941 38.7505 113.816 38.5143C112.983 38.4103 112.137 38.4384 111.304 38.3418C111.115 38.3211 111.034 38.1238 110.941 37.9876C109.196 34.9488 107.434 31.9191 105.685 28.8821C105.586 28.6021 105.255 28.6442 105.021 28.6822ZM13.0131 28.7731C13.0114 29.0225 13.0114 29.2718 13.0131 29.5212C13.9897 29.6302 14.9745 29.6294 15.9545 29.7045C15.9826 30.233 15.9702 30.7615 15.971 31.2907C15.9603 33.6367 15.9941 35.9835 15.9537 38.3286C14.9869 38.4062 14.0119 38.3954 13.0493 38.5086C12.9908 38.7563 13.0106 39.0115 13.0122 39.2641C13.2102 39.274 13.409 39.2872 13.6078 39.2889C15.919 39.2881 18.2311 39.2856 20.5432 39.2906C20.6529 39.2666 20.8121 39.3219 20.888 39.2163C20.9276 38.9768 20.9021 38.7332 20.8913 38.4929C19.9155 38.4219 18.9364 38.3971 17.9606 38.3236C17.9317 37.1651 17.9548 36.0066 17.9474 34.8472C17.9548 33.1347 17.9333 31.422 17.9589 29.7095C18.9249 29.6228 19.8982 29.6351 20.8616 29.5278C20.9383 29.2842 20.9416 29.0084 20.8583 28.7673C20.5061 28.7235 20.1498 28.75 19.7959 28.7458C17.7618 28.745 15.7277 28.7491 13.6936 28.7441C13.4659 28.7433 13.2399 28.759 13.0131 28.7731ZM21.6403 28.7698C21.5759 29.0142 21.5957 29.2693 21.5941 29.5195C22.574 29.6302 23.5614 29.6277 24.5438 29.7053C24.585 32.4377 24.5455 35.1709 24.5636 37.9033C24.5388 38.061 24.6263 38.3451 24.3829 38.3352C23.4698 38.4219 22.5452 38.3897 21.6361 38.5111C21.5735 38.7555 21.5982 39.0115 21.5974 39.2617C22.866 39.3211 24.138 39.2724 25.4083 39.2881C26.5004 39.2724 27.5966 39.3186 28.6871 39.2683C28.8603 39.0585 28.7325 38.7406 28.7399 38.488C28.0173 38.4186 27.2824 38.4367 26.568 38.3046C26.5144 38.0082 26.535 37.706 26.535 37.407C26.54 34.9389 26.5317 32.4708 26.5392 30.0026C27.2782 31.4328 28.1517 32.7879 28.9527 34.1841C29.8815 35.7605 30.8144 37.3344 31.7383 38.9132C31.8208 39.0478 31.9032 39.1841 32.0113 39.3013C32.1614 39.284 32.2266 39.1353 32.3016 39.0247C33.3698 37.2064 34.443 35.3898 35.5136 33.5723C36.1975 32.3807 36.9456 31.2255 37.5676 29.9993C37.5734 32.6615 37.5635 35.3229 37.5725 37.9851C37.5577 38.1089 37.6022 38.3443 37.4125 38.3344C36.732 38.4186 36.0441 38.4301 35.3611 38.4929C35.3602 38.7481 35.2794 39.0305 35.4015 39.2683C36.0795 39.3194 36.7625 39.2724 37.443 39.2881C39.1307 39.2724 40.82 39.3203 42.5068 39.2633C42.5077 39.0107 42.5316 38.7538 42.4681 38.5069C41.5038 38.3979 40.5296 38.4062 39.5621 38.3269C39.5242 37.2766 39.5547 36.2262 39.5448 35.1759C39.5547 33.3527 39.525 31.5294 39.5605 29.707C40.5412 29.626 41.5278 29.6294 42.5068 29.5212C42.5085 29.271 42.5085 29.0216 42.506 28.7714C40.7647 28.7103 39.021 28.7681 37.2789 28.7417C37.0842 28.7541 36.817 28.6955 36.7328 28.9283C35.1738 31.5657 33.6156 34.2048 32.0526 36.8406C30.4894 34.199 28.9272 31.5567 27.3648 28.9151C27.2914 28.7119 27.0621 28.7524 26.8897 28.7425C25.4875 28.75 24.0844 28.745 22.6813 28.7466C22.3348 28.7483 21.9851 28.7235 21.6403 28.7698ZM43.2006 28.7731C43.1973 29.0216 43.1973 29.271 43.1997 29.5204C44.1805 29.6401 45.1728 29.6079 46.1553 29.7226C46.1602 32.5847 46.161 35.4467 46.1544 38.3087C45.186 38.4285 44.2036 38.3831 43.2368 38.5086C43.175 38.7546 43.1973 39.0107 43.1997 39.2625C43.7837 39.3021 44.3694 39.2798 44.9542 39.2848C46.8803 39.2864 48.8063 39.2823 50.7324 39.2872C50.8462 39.2749 50.9774 39.2963 51.0772 39.2262C51.1168 38.9884 51.1209 38.7406 51.0558 38.5069C50.0915 38.3938 49.1165 38.4095 48.1489 38.3245C48.1234 37.1081 48.144 35.891 48.1382 34.6746C49.9925 34.6746 51.8459 34.6722 53.7003 34.6763C54.2504 34.6928 54.8179 34.64 55.3187 34.3922C56.4734 33.8671 57.1895 32.5434 56.9857 31.2875C56.8174 29.9184 55.5752 28.7855 54.196 28.7524C51.912 28.7384 49.6271 28.7508 47.3431 28.7466C45.9622 28.7632 44.5797 28.7119 43.2006 28.7731ZM57.0641 28.7731C57.0616 29.0225 57.0616 29.271 57.0633 29.5204C57.9912 29.6319 58.9282 29.6178 59.8579 29.6979C60.0575 29.6797 60.0096 29.9258 60.0253 30.053C60.0162 32.8052 60.0311 35.5574 60.017 38.3096C59.0495 38.4285 58.0679 38.3831 57.102 38.5094C57.0385 38.7546 57.0624 39.0098 57.0616 39.2609C57.2876 39.2732 57.5144 39.2864 57.7421 39.2872C60.187 39.2823 62.6325 39.2864 65.0786 39.2848C66.5733 39.2708 68.0692 39.3145 69.5632 39.2617C69.5725 38.1758 69.5632 37.0891 69.5675 36.0024C69.5675 35.6771 69.5904 35.3493 69.5329 35.0273C69.2916 34.9852 69.0429 34.981 68.8029 35.0264C68.7546 35.1784 68.7435 35.3394 68.7274 35.4979C68.6668 36.3146 68.5604 37.1271 68.4694 37.9413C66.3141 37.9941 64.1562 37.9487 61.999 37.9636C61.9984 36.867 61.9984 35.7712 61.999 34.6746C63.3223 34.6829 64.6462 34.6557 65.9695 34.6895C66.1056 35.1577 66.0549 35.6565 66.1811 36.1247C66.4298 36.1585 66.6803 36.1337 66.9296 36.1181C66.942 34.8671 66.9259 33.616 66.9383 32.365C66.9278 32.2147 66.9531 32.0504 66.8814 31.9134C66.6432 31.8828 66.3766 31.8399 66.1532 31.9472C66.0641 32.4022 66.1241 32.8853 65.9528 33.3237C65.7752 33.3576 65.5946 33.3551 65.4164 33.3567C64.2775 33.3485 63.1386 33.3551 61.999 33.3535C61.9984 32.2577 61.9984 31.1628 61.999 30.0679C63.1361 30.067 64.2732 30.0679 65.4115 30.0679C66.418 30.0852 67.4295 30.0332 68.4342 30.091C68.6544 31.0455 68.626 32.0438 68.8035 33.005C69.0405 33.0471 69.2861 33.0488 69.5242 33.005C69.5886 32.7705 69.5682 32.5236 69.57 32.2833C69.5539 31.1529 69.5855 30.0216 69.5564 28.892C69.5657 28.7029 69.3207 28.7664 69.205 28.7441C65.8513 28.7491 62.4964 28.745 59.1427 28.7466C58.4498 28.7565 57.7553 28.7194 57.0641 28.7731ZM70.6625 28.7483C70.6452 28.9382 70.6217 29.1281 70.6298 29.3197C70.6279 29.4056 70.6539 29.5559 70.7727 29.5452C71.7006 29.6393 72.6422 29.5997 73.5671 29.7276C73.6191 30.0827 73.5918 30.4427 73.5949 30.8002C73.5949 32.9472 73.5949 35.0942 73.5949 37.2402C73.5918 37.5945 73.6197 37.9512 73.5671 38.3038C72.6045 38.4285 71.6264 38.4078 70.6576 38.4888C70.665 38.7406 70.5431 39.0544 70.7096 39.2658C71.3598 39.317 72.0155 39.2683 72.6688 39.2848C74.6219 39.2691 76.5768 39.317 78.5305 39.26C78.5336 39.0123 78.5342 38.7645 78.5367 38.5177C77.5735 38.3839 76.5935 38.4318 75.6303 38.3154C75.5492 38.1965 75.5789 38.0387 75.5672 37.9041C75.5746 36.8273 75.569 35.7514 75.5715 34.6746C76.6993 34.6722 77.8265 34.6771 78.9543 34.6722C79.8198 35.6226 80.6772 36.5796 81.5551 37.5194C81.9219 37.9182 82.3104 38.3038 82.7676 38.5994C83.6709 39.203 84.8123 39.3938 85.8763 39.2287C87.4465 38.9619 88.7234 37.3839 88.5155 35.7828C88.1059 35.7374 87.6896 35.7341 87.2813 35.782C87.1941 36.1181 87.2169 36.4805 87.061 36.7985C86.7492 37.5119 85.9871 37.9958 85.2082 37.9644C84.5221 37.9685 83.8688 37.6407 83.4011 37.1503C82.626 36.3427 81.8799 35.507 81.1251 34.6805C81.552 34.6755 81.99 34.6738 82.3989 34.5334C83.2922 34.2519 84.0278 33.5186 84.3112 32.6244C84.6551 31.5905 84.3681 30.38 83.5892 29.617C83.0244 29.0423 82.2189 28.7285 81.4165 28.7458C77.8314 28.7483 74.2476 28.7433 70.6625 28.7483ZM88.1579 28.7739C88.1752 29.0191 88.1072 29.2966 88.2161 29.522C89.1719 29.6418 90.1438 29.6219 91.1051 29.7062C91.1367 32.5739 91.1163 35.4418 91.1163 38.3096C90.1462 38.4301 89.162 38.3831 88.1944 38.5111C88.1449 38.7588 88.1548 39.0123 88.1604 39.2633C88.4969 39.2864 88.8347 39.2939 89.1719 39.2897C91.446 39.2716 93.7233 39.317 95.9962 39.2683C96.1112 39.0379 96.0853 38.7456 96.011 38.5053C95.0472 38.3954 94.0734 38.412 93.1071 38.3211C93.0941 35.4517 93.0947 32.5814 93.1071 29.7119C94.0722 29.6211 95.0466 29.6351 96.0098 29.5286C96.11 29.2826 96.0432 29.0092 96.037 28.7524C94.4063 28.7384 92.7755 28.75 91.146 28.7466C90.1493 28.7615 89.1527 28.7136 88.1579 28.7739ZM114.502 28.7689C114.423 29.0076 114.41 29.2916 114.507 29.5253C115.467 29.6393 116.441 29.6195 117.405 29.7103C117.422 32.5814 117.426 35.4534 117.403 38.3245C116.434 38.4095 115.459 38.3963 114.494 38.5069C114.436 38.7125 114.431 38.9305 114.462 39.1419C114.447 39.3005 114.634 39.2724 114.735 39.2848C118.091 39.2856 121.447 39.2848 124.803 39.2848C125.521 39.2741 126.239 39.312 126.957 39.2592C126.957 38.1742 126.956 37.0899 126.957 36.0058C126.953 35.6804 126.985 35.3518 126.922 35.0306C126.684 34.9852 126.439 34.9785 126.202 35.0223C126.163 35.1214 126.147 35.2263 126.137 35.332C126.061 36.1643 125.987 36.9983 125.867 37.8257C125.865 37.9876 125.657 37.9545 125.551 37.9685C123.498 37.9644 121.445 37.9685 119.392 37.9661C119.395 35.2725 119.387 32.5789 119.396 29.8853C119.349 29.702 119.558 29.6971 119.684 29.683C120.574 29.6236 121.47 29.6236 122.357 29.5204C122.356 29.2859 122.369 29.0488 122.334 28.8168C122.254 28.7243 122.108 28.7632 122.003 28.7441C120.324 28.7475 118.644 28.7458 116.966 28.7466C116.145 28.7632 115.321 28.7119 114.502 28.7689ZM12.1527 44.136C14.3336 46.965 17.1118 49.2788 20.0788 51.2416C24.2633 53.9913 28.8562 56.0689 33.5695 57.7294C39.327 59.7442 45.2932 61.1282 51.3189 62.0466C57.2356 62.9434 63.219 63.3831 69.2025 63.4196C76.4655 63.4611 83.7377 62.9143 90.8973 61.6814C96.9198 60.6394 102.873 59.1175 108.584 56.926C113.35 55.0829 117.978 52.7807 122.074 49.7007C124.205 48.0897 126.184 46.2566 127.818 44.136C89.2628 44.1344 50.7076 44.1344 12.1527 44.136Z" fill="white"/>
<path d="M56.448 17.1729C56.4497 14.0508 56.4463 10.9286 56.4497 7.80566C56.7994 7.80647 57.15 7.80647 57.5005 7.80734C57.5492 9.03933 57.9682 10.2581 58.7312 11.23C59.5289 12.2639 60.6812 13.0194 61.9509 13.3257C63.2878 13.6561 64.7422 13.4926 65.9684 12.8642C67.2329 12.2258 68.2468 11.1103 68.7622 9.78993C69.0183 9.15904 69.1334 8.48275 69.1742 7.80647C69.6666 7.80647 70.1591 7.80647 70.6522 7.80647C70.7016 9.05004 71.1273 10.2812 71.9043 11.2581C72.8446 12.4653 74.2756 13.2787 75.7974 13.4513C77.0836 13.6081 78.4193 13.3208 79.5229 12.6404C81.1939 11.6363 82.2735 9.75444 82.3254 7.80734C82.7251 7.80647 83.1247 7.80647 83.525 7.80647C83.5275 10.9286 83.525 14.0508 83.5268 17.1729C74.5001 17.1737 65.4735 17.1737 56.448 17.1729Z" fill="white"/>
<path d="M56.4454 18.5347C65.4721 18.5347 74.4982 18.5347 83.5255 18.5347C83.5255 19.168 83.5267 19.8005 83.5249 20.4339C74.4982 20.4339 65.4721 20.4339 56.4462 20.4339C56.4437 19.8005 56.4446 19.1672 56.4454 18.5347Z" fill="white"/>
<path d="M48.1383 30.0679C49.8812 30.0679 51.625 30.0662 53.3688 30.0679C53.9404 30.053 54.5029 30.3602 54.7982 30.8507C55.1315 31.3783 55.1199 32.0992 54.7694 32.6161C54.4683 33.0818 53.9231 33.3626 53.3721 33.356C51.6275 33.3593 49.8829 33.3552 48.1383 33.3568C48.1375 32.2602 48.1375 31.1636 48.1383 30.0679Z" fill="white"/>
<path d="M75.5708 30.0677C77.2987 30.0669 79.0259 30.0685 80.7538 30.0661C81.2685 30.0471 81.7901 30.2692 82.1118 30.6771C82.5244 31.1742 82.5937 31.9223 82.2819 32.488C82.0072 33.0123 81.4319 33.3583 80.8404 33.3534C79.0835 33.3616 77.3278 33.3542 75.5714 33.3566C75.5708 32.2601 75.5708 31.1635 75.5708 30.0677Z" fill="white"/>
<path d="M103.737 34.2544C104.249 33.3683 104.759 32.4823 105.273 31.5979C105.786 32.4831 106.298 33.3683 106.809 34.2544C105.786 34.2544 104.761 34.2552 103.737 34.2544Z" fill="white"/>
<path d="M109.996 46.0146H31.8604V53.756H109.996V46.0146Z" fill="#7AAED5"/>
<path d="M60.4653 57.8434V49.7361H62.1779V56.4301H65.6497V57.8434H60.4653ZM65.4635 51.1493V49.7361H72.1152V51.1493H69.6357V57.8434H67.9431V51.1493H65.4635ZM76.0814 57.8434H73.2102V49.7361H76.1049C76.9196 49.7361 77.6212 49.8984 78.2089 50.223C78.7966 50.545 79.2488 51.0081 79.565 51.6125C79.8842 52.2168 80.0438 52.94 80.0438 53.7818C80.0438 54.6263 79.8842 55.3521 79.565 55.9591C79.2488 56.5661 78.7941 57.0318 78.2009 57.3565C77.6107 57.6811 76.9042 57.8434 76.0814 57.8434ZM74.9226 56.3748H76.0102C76.5163 56.3748 76.9419 56.285 77.2877 56.1055C77.6354 55.9235 77.8965 55.6424 78.0703 55.2624C78.2472 54.8797 78.3351 54.3862 78.3351 53.7818C78.3351 53.1827 78.2472 52.6932 78.0703 52.3131C77.8965 51.9331 77.6366 51.6534 77.2914 51.4739C76.9462 51.2944 76.52 51.2047 76.0139 51.2047H74.9226V56.3748Z" fill="white"/>
</g>
</g>
<defs>
<clipPath id="clip0_80_69">
<rect width="140" height="68" fill="white"/>
</clipPath>
</defs>
</svg>
